<svg width="43" height="43" viewBox="0 0 43 43" fill="none" xmlns="http://www.w3.org/2000/svg">
<path d="M6.71785 16.4327C5.25745 23.0542 7.87177 29.8894 11.977 32.9847C18.5918 37.9721 27.9972 36.6528 32.9846 30.038C33.7102 29.0757 34.3022 28.0543 34.764 26.996L24.0661 28.4965C23.0406 28.6404 22.0927 27.9257 21.9488 26.9002L20.0074 14.5687L6.71785 16.4327Z" fill="#335EEA"/>
<path d="M6.71785 16.4327L22.0719 14.2791C23.0974 14.1353 24.0453 14.85 24.1892 15.8755L25.402 24.5224L35.8699 23.0542C36.5821 17.8474 34.5323 12.4192 30.0379 9.03049C23.4232 4.0431 14.0178 5.36235 9.03038 11.9771C7.98617 13.3621 7.21842 14.8693 6.71785 16.4327Z" fill="#335EEA"/>
</svg>
